<?xml version="1.0" standalone="no"?>
<!DOCTYPE svg PUBLIC "-//W3C//DTD SVG 20010904//EN"
 "http://www.w3.org/TR/2001/REC-SVG-20010904/DTD/svg10.dtd">
<svg version="1.0" xmlns="http://www.w3.org/2000/svg"
 viewBox="0 0 42.000000 42.000000"
 preserveAspectRatio="xMidYMid meet">
<metadata>
Created by potrace 1.15, written by Peter Selinger 2001-2017
</metadata>
<g transform="translate(0.000000,42.000000) scale(0.100000,-0.100000)"
fill="#000000" stroke="none">
<path d="M105 397 c-22 -12 -55 -44 -73 -71 -28 -43 -32 -56 -32 -116 0 -60 4
-73 33 -116 29 -45 94 -93 125 -94 8 0 12 18 12 60 0 50 -4 63 -25 84 -19 19
-25 36 -25 66 0 56 34 90 90 90 56 0 90 -34 90 -90 0 -46 -34 -90 -70 -90 -18
0 -20 -6 -20 -60 l0 -60 33 0 c48 0 108 39 144 94 29 43 33 56 33 116 0 60 -4
73 -32 116 -46 67 -96 94 -178 94 -49 0 -75 -6 -105 -23z"/>
</g>
</svg>
